<?xml version="1.0" standalone="no"?> <!DOCTYPE svg PUBLIC "-//W3C//DTD SVG 1.0//EN" "http://www.w3.org/TR/2001/REC-SVG-20010904/DTD/svg10.dtd" > <svg xmlns="http://www.w3.org/2000/svg" width="100%" height="100%">
<defs >
<font id="universcom-85xblack" horiz-adv-x="538" ><font-face
    font-family="Univers Com"
    units-per-em="1000"
    panose-1="2 11 10 4 4 7 2 2 2 4"
    ascent="724"
    descent="-276"
    alphabetic="0" />
<missing-glyph horiz-adv-x="485" d="M210 111V174H263V111H210ZM211 222V238Q211 263 213 281T222 314T240 341T268 369Q298 398 306 415T314 449Q314 483 293 506T242 529Q213 529 192 509T165 439Q153 441 141 443T117 447Q124 516 159 546T245 577Q297 577
330 544T363 453Q363 422 351 398T303 340Q284 323 275 312T261 289T257 262T257 222H211ZM438 47V632H47V47H438ZM485 680V0H0V680H485Z" />
<glyph unicode=" " glyph-name="space" horiz-adv-x="352" />
<glyph unicode="!" glyph-name="exclam" horiz-adv-x="370" d="M42 722H328L285 211H85L42 722ZM64 164H306V0H64V164Z" />
<glyph unicode="&quot;" glyph-name="quotedbl" horiz-adv-x="592" d="M325 722H507V422H325V722ZM85 722H267V422H85V722Z" />
<glyph unicode="#" glyph-name="numbersign" horiz-adv-x="704" d="M312 312H379L392 410H325L312 312ZM172 194H100V312H188L202 410H130V528H218L243 722H367L342 528H409L434 722H558L532 528H604V410H516L503 312H575V194H487L461 0H337L363 194H296L270 0H146L172
194Z" />
<glyph unicode="$" glyph-name="dollar" horiz-adv-x="704" d="M278 -19Q225 -12 178 4T96 49T41 121T20 225H294Q294 208 297 194T309 168Q327 145 365 145Q397 145 415 162T434 205Q434 222 420 234T386 253L179 314Q113 334 73 381T33 506Q33 603 96 662T278
741V837H426V741Q482 735 528 721T609 679T661 612T680 517H424Q420 577 358 577Q324 577 310 566T295 537Q295 520 306 508T355 485Q380 478 408 471T465 456T521 440T571 422Q640 393 671 346T702 232Q702 174 682 131T626 56T539 7T426 -19V-115H278V-19Z" />
<glyph unicode="%" glyph-name="percent" horiz-adv-x="1056" d="M620 219Q620 277 635 321T678 396T744 441T826 457Q898 457 939 432T1000 371T1026 293T1032 219Q1032 160 1017 116T974 41T908 -4T826 -19Q778 -19 740 -6T675 35T634 109T620 219ZM790 219Q790
179 792 155T799 119T810 103T826 99Q835 99 841 102T852 118T859 155T862 219Q862 259 860 283T853 319T842 335T826 339Q817 339 811 336T800 320T793 283T790 219ZM24 503Q24 561 39 605T82 680T148 725T230 741Q302 741 343 716T404 655T430 577T436 503Q436
444 421 400T378 325T312 280T230 265Q182 265 144 278T79 319T38 393T24 503ZM194 503Q194 463 196 439T203 403T214 387T230 383Q239 383 245 386T256 402T263 439T266 503Q266 543 264 567T257 603T246 619T230 623Q221 623 215 620T204 604T197 567T194 503ZM677
747H783L380 -25H274L677 747Z" />
<glyph unicode="&amp;" glyph-name="ampersand" horiz-adv-x="888" d="M574 43Q520 10 459 -4T333 -19Q183 -19 101 39T18 200Q18 228 28 255T59 308T116 354T203 390Q149 426 118 470T86 561Q86 649 162 695T378 741Q449 741 502 728T590 692T642 638T660 571Q660
523 626 472T517 373L606 286Q645 336 648 398H854Q854 368 846 333T824 265T789 203T745 154L892 0H618L574 43ZM336 273Q298 262 279 239T260 195Q260 160 287 139T349 117Q373 117 400 127T456 154L336 273ZM310 563Q310 549 326 528T376 485Q409 506 425 527T442
563Q442 580 429 595T376 611Q337 611 324 596T310 563Z" />
<glyph unicode="&apos;" glyph-name="quotesingle" horiz-adv-x="352" d="M85 722H267V422H85V722Z" />
<glyph unicode="(" glyph-name="parenleft" horiz-adv-x="388" d="M174 -144Q153 -90 133 -35T96 76T70 185T60 289Q60 339 70 392T96 501T132 612T174 722H362Q345 665 331 605T307 488T290 380T284 289Q284 250 290 199T306 90T331 -27T362 -144H174Z" />
<glyph unicode=")" glyph-name="parenright" horiz-adv-x="388" d="M214 722Q235 668 255 613T292 502T318 393T328 289Q328 239 318 186T292 77T256 -34T214 -144H26Q43 -87 57 -27T81 90T98 198T104 289Q104 328 98 379T82 488T57 605T26 722H214Z" />
<glyph unicode="*" glyph-name="asterisk" horiz-adv-x="388" d="M35 601H121L78 680L150 722L194 643L238 722L310 680L267 601H353V521H267L310 442L238 400L194 479L150 400L78 442L121 521H35V601Z" />
<glyph unicode="+" glyph-name="plus" horiz-adv-x="600" d="M232 506H368V321H553V185H368V0H232V185H47V321H232V506Z" />
<glyph unicode="," glyph-name="comma" horiz-adv-x="352" d="M79 206H321L216 -100H10L79 206Z" />
<glyph unicode="-" glyph-name="hyphen" horiz-adv-x="407" d="M29 352H378V182H29V352Z" />
<glyph unicode="." glyph-name="period" horiz-adv-x="352" d="M55 206H297V0H55V206Z" />
<glyph unicode="/" glyph-name="slash" horiz-adv-x="370" d="M244 741H386L126 -19H-16L244 741Z" />
<glyph unicode="0" glyph-name="zero" horiz-adv-x="704" d="M292 361Q292 291 296 251T307 189T326 163T352 157Q366 157 377 162T396 189T408 250T412 361Q412 431 408 471T397 533T378 559T352 565Q338 565 327 560T308 533T296 472T292 361ZM24 361Q24 447
43 517T103 637T206 714T352 741Q436 741 498 714T600 637T660 517T680 361Q680 275 661 205T601 85T498 8T352 -19Q268 -19 206 8T104 85T44 205T24 361Z" />
<glyph unicode="1" glyph-name="one" horiz-adv-x="704" d="M242 470Q204 443 169 424T86 390V596Q146 616 202 646T298 722H516V0H242V470Z" />
<glyph unicode="2" glyph-name="two" horiz-adv-x="704" d="M38 188L199 293Q255 330 293 362T354 421T388 471T398 512Q398 544 382 557T343 571Q317 571 300 554T282 491H32Q32 557 53 604T116 682T216 727T349 741Q439 741 501 722T601 672T655 601T672 517Q672
474 658 435T611 357T524 277T391 190V188H672V0H38V188Z" />
<glyph unicode="3" glyph-name="three" horiz-adv-x="704" d="M254 444H307Q351 444 372 462T394 513Q394 539 381 558T333 577Q303 577 288 560T272 499H30Q30 566 54 612T120 687T218 728T340 741Q425 741 485 726T583 683T638 619T656 539Q656 510 648 484T620
437T571 401T496 380V378Q545 374 578 359T632 322T660 271T669 211Q669 154 646 111T582 39T482 -4T354 -19Q181 -19 100 39T19 223H261Q263 179 283 162T333 145Q367 145 384 164T401 215Q401 252 376 271T296 290H254V444Z" />
<glyph unicode="4" glyph-name="four" horiz-adv-x="704" d="M343 116H13V322L257 722H605V298H691V116H605V0H343V116ZM349 298V546H347L212 298H349Z" />
<glyph unicode="5" glyph-name="five" horiz-adv-x="704" d="M66 722H623V552H296L286 433Q317 462 353 473T430 485Q480 485 523 471T598 428T648 357T666 259Q666 190 643 138T578 51T479 -1T355 -19Q284 -19 227 -7T130 32T66 99T38 199H294Q296 176 306 161T340
145Q366 145 382 166T398 246Q398 278 394 297T383 327T366 340T342 343Q316 343 305 330T290 285H52L66 722Z" />
<glyph unicode="6" glyph-name="six" horiz-adv-x="704" d="M366 145Q398 145 416 165T434 237Q434 287 416 306T366 326Q334 326 316 307T298 237Q298 185 316 165T366 145ZM411 523Q411 556 396 566T361 577Q341 577 327 569T304 541T291 490T284 413Q314 445
354 456T436 468Q482 468 525 455T602 413T656 343T676 242Q676 181 654 133T590 51T490 -1T358 -19Q275 -19 213 5T110 76T49 189T28 340Q28 542 115 641T373 741Q431 741 480 730T566 693T622 626T643 523H411Z" />
<glyph unicode="7" glyph-name="seven" horiz-adv-x="704" d="M42 722H653V568L383 0H91L364 534H42V722Z" />
<glyph unicode="8" glyph-name="eight" horiz-adv-x="704" d="M28 188Q28 255 62 303T171 366V368Q112 380 79 418T45 524Q45 572 64 612T121 680T217 725T351 741Q429 741 487 725T584 681T642 612T661 524Q661 456 627 418T531 368V366Q607 351 641 303T676
188Q676 150 660 113T607 46T507 -1T351 -19Q259 -19 197 -1T98 46T44 112T28 188ZM290 218Q290 176 308 161T353 145Q378 145 396 160T414 218Q414 260 396 275T353 291Q327 291 309 276T290 218ZM301 511Q301 474 314 460T353 445Q379 445 392 459T405 511Q405
547 392 562T353 577Q327 577 314 562T301 511Z" />
<glyph unicode="9" glyph-name="nine" horiz-adv-x="704" d="M270 485Q270 435 288 416T338 396Q370 396 388 415T406 485Q406 537 388 557T338 577Q306 577 288 557T270 485ZM293 199Q293 166 308 156T343 145Q363 145 376 153T399 181T413 232T420 309Q390 277
350 266T268 254Q221 254 178 267T102 309T48 379T28 480Q28 541 50 589T114 671T214 723T346 741Q429 741 491 717T594 646T655 533T676 382Q676 180 589 81T331 -19Q273 -19 224 -8T138 29T82 96T61 199H293Z" />
<glyph unicode=":" glyph-name="colon" horiz-adv-x="352" d="M55 517H297V311H55V517ZM55 206H297V0H55V206Z" />
<glyph unicode=";" glyph-name="semicolon" horiz-adv-x="352" d="M79 206H321L216 -100H10L79 206ZM79 517H321V311H79V517Z" />
<glyph unicode="&lt;" glyph-name="less" horiz-adv-x="600" d="M46 315L554 514V384L216 253L554 122V-8L46 191V315Z" />
<glyph unicode="=" glyph-name="equal" horiz-adv-x="600" d="M47 443H553V307H47V443ZM47 199H553V63H47V199Z" />
<glyph unicode="&gt;" glyph-name="greater" horiz-adv-x="600" d="M46 122L384 253L46 384V514L554 315V191L46 -8V122Z" />
<glyph unicode="?" glyph-name="question" horiz-adv-x="537" d="M30 705Q56 714 85 720T142 731T195 738T240 741Q297 741 347 730T435 694T495 632T517 543Q517 490 500 458T451 398L367 326Q350 312 342 297T333 257V208H91V272Q91 304 102 327T135 372L208
446Q222 461 227 475T233 498Q233 522 215 534T163 547Q135 547 100 539T30 517V705ZM91 164H333V0H91V164Z" />
<glyph unicode="@" glyph-name="at" horiz-adv-x="800" d="M316 337Q316 300 338 280T389 260Q405 260 421 267T450 287T472 318T481 360Q481 398 460 418T412 438Q395 438 378 431T347 411T325 380T316 337ZM529 544H623L583 328Q579 307 577 292T575 267Q575
242 588 242Q598 242 613 250T641 277T664 328T674 407Q674 468 654 512T599 584T517 627T414 641Q353 641 302 620T213 562T154 473T132 360Q132 295 154 243T215 155T304 100T410 81Q484 81 531 97T617 144H733Q679 63 599 22T400 -19Q321 -19 252 11T132 92T50
213T20 361Q20 440 50 509T131 629T252 711T400 741Q491 741 562 718T681 654T755 558T780 438Q780 379 765 333T725 253T670 196T611 158T556 137T515 130Q498 130 480 140T457 182H455Q419 130 352 130Q312 130 280 145T226 187T192 248T180 321Q180 371 196
415T240 491T308 543T395 562Q434 562 464 548T518 502L529 544Z" />
<glyph unicode="A" glyph-name="A" horiz-adv-x="796" d="M449 292L392 564H390L327 292H449ZM212 722H583L815 0H519L491 116H284L255 0H-19L212 722Z" />
<glyph unicode="B" glyph-name="B" horiz-adv-x="758" d="M319 568V431H357Q407 431 425 451T444 503Q444 539 422 553T356 568H319ZM51 722H480Q598 722 655 674T712 535Q712 509 706 485T685 440T643 403T576 378V376Q618 370 647 354T695 315T722 264T731 207Q731
114 660 57T454 0H51V722ZM319 154H359Q412 154 434 172T457 230Q457 295 356 295H319V154Z" />
<glyph unicode="C" glyph-name="C" horiz-adv-x="758" d="M733 267Q733 192 706 138T632 49T524 -2T395 -19Q300 -19 231 8T115 86T47 207T25 364Q22 448 45 517T116 636T234 713T396 741Q464 741 525 726T632 678T705 589T733 455H471Q469 486 463 505T448 534T427
549T402 553Q374 553 358 540T334 501T323 440T321 361Q321 320 323 285T333 224T356 184T399 169Q427 169 444 189T465 267H733Z" />
<glyph unicode="D" glyph-name="D" horiz-adv-x="796" d="M51 722H390Q498 722 571 695T689 618T752 501T771 353Q771 271 746 206T673 95T558 25T407 0H51V722ZM331 164H359Q394 164 415 176T450 210Q464 233 469 270T475 361Q475 414 470 451T450 512Q436 534
415 546T359 558H331V164Z" />
<glyph unicode="E" glyph-name="E" horiz-adv-x="630" d="M51 722H600V534H325V457H579V269H325V188H609V0H51V722Z" />
<glyph unicode="F" glyph-name="F" horiz-adv-x="610" d="M51 722H600V534H337V457H582V269H337V0H51V722Z" />
<glyph unicode="G" glyph-name="G" horiz-adv-x="814" d="M400 407H772V29Q687 7 594 -6T412 -19Q314 -19 242 9T121 88T49 208T25 361Q25 444 49 513T122 633T245 712T420 741Q586 741 672 684T761 499H493Q492 516 486 527T471 546Q462 553 450 556T424 559Q392
559 371 545T339 508Q334 497 331 479T325 440T322 394T321 347Q321 240 340 206Q364 163 422 163Q442 163 461 166T498 178V265H400V407Z" />
<glyph unicode="H" glyph-name="H" horiz-adv-x="796" d="M459 266H337V0H51V722H337V478H459V722H745V0H459V266Z" />
<glyph unicode="I" glyph-name="I" horiz-adv-x="388" d="M51 722H337V0H51V722Z" />
<glyph unicode="J" glyph-name="J" horiz-adv-x="666" d="M334 722H620V231Q620 168 597 121T532 43T431 -3T299 -19Q236 -19 181 -5T86 37T22 107T-2 204V239H240V224Q240 199 251 184T283 169Q314 169 324 188T334 245V722Z" />
<glyph unicode="K" glyph-name="K" horiz-adv-x="796" d="M51 722H331V412H333L480 722H782L589 382L809 0H499L333 324H331V0H51V722Z" />
<glyph unicode="L" glyph-name="L" horiz-adv-x="610" d="M51 722H337V194H600V0H51V722Z" />
<glyph unicode="M" glyph-name="M" horiz-adv-x="1056" d="M763 516H761L659 0H397L295 516H293V0H51V722H448L527 292H529L608 722H1005V0H763V516Z" />
<glyph unicode="N" glyph-name="N" horiz-adv-x="832" d="M51 722H394L547 285H549V722H781V0H438L285 440H283V0H51V722Z" />
<glyph unicode="O" glyph-name="O" horiz-adv-x="796" d="M321 361Q321 298 327 261T343 203T367 176T398 169Q414 169 428 175T453 202T469 260T475 361Q475 422 470 459T454 518T430 546T398 553Q381 553 367 546T342 518T327 460T321 361ZM25 361Q25 445 48
515T118 635T235 713T398 741Q491 741 561 714T677 636T747 515T771 361Q771 277 748 207T678 87T561 9T398 -19Q305 -19 235 8T119 86T49 207T25 361Z" />
<glyph unicode="P" glyph-name="P" horiz-adv-x="740" d="M51 722H471Q536 722 584 704T664 655T711 580T727 485Q727 431 709 387T655 310T563 261T431 243H337V0H51V722ZM351 407Q407 407 430 427T453 485Q453 523 434 540T367 558H337V407H351Z" />
<glyph unicode="Q" glyph-name="Q" horiz-adv-x="796" d="M321 361Q321 298 327 261T343 203T367 176T398 169Q414 169 428 175T453 202T469 260T475 361Q475 422 470 459T454 518T430 546T398 553Q381 553 367 546T342 518T327 460T321 361ZM794 0H614Q596 0
572 -2T520 -9Q491 -13 461 -16T398 -19Q305 -19 235 8T119 86T49 207T25 361Q25 445 48 515T118 635T235 713T398 741Q489 741 558 716T673 643T742 528T765 378Q765 344 760 316T746 264T723 219T693 176H794V0Z" />
<glyph unicode="R" glyph-name="R" horiz-adv-x="758" d="M51 722H478Q536 722 582 713T659 682T707 625T724 539Q724 476 693 432T581 367V365Q634 360 663 338T703 273Q709 250 712 220T720 154T731 80T750 0H470Q464 20 459 46T450 100T442 156T434 207Q429
234 414 245T364 257H331V0H51V722ZM355 421Q397 421 423 437T450 494Q450 534 425 546T357 558H331V421H355Z" />
<glyph unicode="S" glyph-name="S" horiz-adv-x="722" d="M424 517Q423 551 406 564T361 577Q326 577 311 565T295 535Q295 515 307 506T342 489Q363 483 391 476T450 461T512 444T571 422Q640 393 671 346T702 232Q702 166 677 119T605 41T494 -4T354 -19Q289
-19 229 -8T122 31T48 105T20 223H294Q294 208 297 194T309 168Q327 145 365 145Q397 145 415 162T434 204Q434 224 420 235T386 253L183 313Q100 338 67 387T33 506Q33 619 119 680T365 741Q432 741 490 730T590 692T656 623T680 517H424Z" />
<glyph unicode="T" glyph-name="T" horiz-adv-x="648" d="M181 528H3V722H645V528H467V0H181V528Z" />
<glyph unicode="U" glyph-name="U" horiz-adv-x="778" d="M732 242Q732 111 642 46T389 -19Q225 -19 136 46T46 242V722H332V254Q332 211 349 193T389 175Q412 175 429 193T446 254V722H732V242Z" />
<glyph unicode="V" glyph-name="V" horiz-adv-x="759" d="M-8 722H283L385 158H387L493 722H767L565 0H195L-8 722Z" />
<glyph unicode="W" glyph-name="W" horiz-adv-x="1036" d="M-16 722H240L301 268H303L370 722H666L733 268H735L796 722H1052L896 0H586L519 468H517L450 0H140L-16 722Z" />
<glyph unicode="X" glyph-name="X" horiz-adv-x="778" d="M383 218L272 0H-14L220 369L1 722H303L397 517L497 722H783L560 369L792 0H490L383 218Z" />
<glyph unicode="Y" glyph-name="Y" horiz-adv-x="740" d="M227 250L-16 722H280L380 419H382L482 722H756L513 250V0H227V250Z" />
<glyph unicode="Z" glyph-name="Z" horiz-adv-x="685" d="M23 176L325 534H32V722H655V546L354 188H662V0H23V176Z" />
<glyph unicode="[" glyph-name="bracketleft" horiz-adv-x="481" d="M80 722H447V558H292V20H447V-144H80V722Z" />
<glyph unicode="\" glyph-name="backslash" horiz-adv-x="370" d="M-16 741H126L386 -19H244L-16 741Z" />
<glyph unicode="]" glyph-name="bracketright" horiz-adv-x="481" d="M34 722H401V-144H34V20H189V558H34V722Z" />
<glyph unicode="^" glyph-name="asciicircum" horiz-adv-x="600" d="M300 580L195 357H65L239 722H361L535 357H405L300 580Z" />
<glyph unicode="_" glyph-name="underscore" horiz-adv-x="500" d="M0 -75H500V-125H0V-75Z" />
<glyph unicode="`" glyph-name="grave" horiz-adv-x="278" d="M-78 722H154L252 552H76L-78 722Z" />
<glyph unicode="a" glyph-name="a" horiz-adv-x="592" d="M333 365Q333 384 323 394T286 405Q263 405 251 395T237 353H37Q40 404 63 436T122 486T203 510T296 517Q368 517 417 506T496 472T538 416T551 339V0H339L333 48Q307 13 270 -1T190 -15Q152 -15 120 -5T65
24T29 72T16 138Q16 231 89 272T304 313H333V365ZM333 219H300Q276 219 261 214T237 201T225 182T222 161Q222 137 236 123T278 109Q310 109 321 127T333 177V219Z" />
<glyph unicode="b" glyph-name="b" horiz-adv-x="666" d="M285 251Q285 175 295 154Q300 143 310 135T340 127Q359 127 370 137T388 163T396 202T398 251Q398 311 388 343T341 375Q299 375 289 329Q286 313 286 299T285 251ZM43 722H285V456Q315 490 353 503T434
517Q475 517 512 503T577 458T623 378T640 257Q640 190 625 140T581 55T515 3T431 -15Q389 -15 348 0T275 58L271 0H43V722Z" />
<glyph unicode="c" glyph-name="c" horiz-adv-x="630" d="M380 296Q378 344 369 368T328 393Q313 393 302 388T283 367T272 322T268 244Q268 200 271 174T282 133T300 114T325 109Q354 109 365 131T380 203H604Q602 98 533 42T315 -15Q256 -15 204 -2T112 43T49
126T26 254Q26 319 47 368T106 450T199 500T321 517Q394 517 446 502T533 458T584 388T604 296H380Z" />
<glyph unicode="d" glyph-name="d" horiz-adv-x="666" d="M381 251Q381 284 381 298T377 329Q367 375 325 375Q306 375 295 367T278 343T270 304T268 251Q268 225 269 203T277 164T294 137T326 127Q346 127 356 135T371 154Q381 175 381 251ZM391 58Q359 15 318
0T235 -15Q189 -15 151 2T85 54T42 139T26 257Q26 328 43 377T88 458T154 503T232 517Q274 517 312 504T381 456V722H623V0H395L391 58Z" />
<glyph unicode="e" glyph-name="e" horiz-adv-x="630" d="M598 161Q584 75 515 30T305 -15Q250 -15 200 -2T111 43T49 126T26 254Q26 319 47 368T107 450T200 500T323 517Q466 517 535 447T604 241V207H258V192Q258 148 274 129T326 109Q346 109 363 121T386 161H598ZM386
313V320Q386 356 369 374T323 393Q294 393 276 375T258 320V313H386Z" />
<glyph unicode="f" glyph-name="f" horiz-adv-x="388" d="M54 354H0V502H54V552Q54 595 69 628T112 683T177 716T257 728Q292 728 328 725T392 714V572Q379 573 366 573T340 574Q296 574 296 531V502H381V354H296V0H54V354Z" />
<glyph unicode="g" glyph-name="g" horiz-adv-x="666" d="M331 145Q353 145 365 154T384 178T391 214T392 258Q392 280 391 301T385 338T368 365T335 375Q313 375 301 363T284 332T277 290T276 246Q276 223 277 205T283 173T300 152T331 145ZM400 74H398Q369 34
327 22T242 9Q205 9 167 21T97 61T46 135T26 249Q26 319 43 370T89 453T159 501T247 517Q292 517 329 502T390 447H392L396 502H624V45Q624 -32 602 -80T540 -156T444 -194T321 -204Q247 -204 197 -192T115 -158T67 -104T47 -34H285Q285 -53 298 -63Q312 -74 337
-74Q369 -74 384 -56T400 11V74Z" />
<glyph unicode="h" glyph-name="h" horiz-adv-x="648" d="M36 722H278V434H280Q293 454 308 469T341 495T383 511T438 517Q476 517 508 507T563 476T599 419T612 334V0H370V311Q370 369 326 369Q306 369 292 356T278 313V0H36V722Z" />
<glyph unicode="i" glyph-name="i" horiz-adv-x="314" d="M36 502H278V0H36V502ZM36 722H278V568H36V722Z" />
<glyph unicode="j" glyph-name="j" horiz-adv-x="314" d="M36 502H278V-16Q278 -78 259 -113T207 -165T129 -187T31 -192Q10 -192 -10 -191T-48 -184V-60Q-41 -61 -35 -61T-21 -62Q9 -62 22 -47T36 10V502ZM36 722H278V568H36V722Z" />
<glyph unicode="k" glyph-name="k" horiz-adv-x="630" d="M36 722H278V308H280L370 502H632L492 287L642 0H380L280 262H278V0H36V722Z" />
<glyph unicode="l" glyph-name="l" horiz-adv-x="314" d="M36 722H278V0H36V722Z" />
<glyph unicode="m" glyph-name="m" horiz-adv-x="980" d="M41 502H277L283 426H285Q316 480 358 498T443 517Q561 517 607 426Q638 480 680 498T765 517Q803 517 835 507T890 476T926 419T939 334V0H697V315Q697 341 685 355T655 369Q638 369 625 356T611 313V0H369V315Q369
341 357 355T327 369Q310 369 297 356T283 313V0H41V502Z" />
<glyph unicode="n" glyph-name="n" horiz-adv-x="648" d="M36 502H272L278 426H280Q311 480 353 498T438 517Q476 517 508 507T563 476T599 419T612 334V0H370V311Q370 369 326 369Q306 369 292 356T278 313V0H36V502Z" />
<glyph unicode="o" glyph-name="o" horiz-adv-x="666" d="M26 251Q26 311 45 360T103 444T198 498T333 517Q409 517 467 498T563 444T620 360T640 251Q640 191 621 142T563 58T467 4T333 -15Q256 -15 199 4T103 58T46 142T26 251ZM276 251Q276 176 290 149T333
121Q362 121 376 148T390 251Q390 326 376 353T333 381Q304 381 290 354T276 251Z" />
<glyph unicode="p" glyph-name="p" horiz-adv-x="666" d="M285 251Q285 218 285 204T289 173Q299 127 341 127Q378 127 388 159T398 251Q398 276 396 299T388 338T371 365T340 375Q320 375 310 367T295 348Q285 327 285 251ZM43 502H271L275 444Q307 487 348 502T431
517Q477 517 515 500T581 448T624 363T640 245Q640 174 623 125T578 44T512 -1T434 -15Q392 -15 354 -2T285 46V-192H43V502Z" />
<glyph unicode="q" glyph-name="q" horiz-adv-x="666" d="M381 251Q381 327 371 348Q366 359 356 367T326 375Q306 375 295 365T277 339T270 299T268 251Q268 221 270 198T278 159T295 135T325 127Q367 127 377 173Q380 189 380 203T381 251ZM395 502H623V-192H381V46Q351
12 313 -1T232 -15Q191 -15 154 -1T89 44T43 124T26 245Q26 312 41 362T84 447T150 499T235 517Q277 517 318 502T391 444L395 502Z" />
<glyph unicode="r" glyph-name="r" horiz-adv-x="444" d="M36 502H272L278 447Q304 481 329 494T377 508Q392 508 408 506T441 494V312Q420 317 396 321T340 326Q305 326 292 307T278 263V0H36V502Z" />
<glyph unicode="s" glyph-name="s" horiz-adv-x="592" d="M345 347Q345 382 333 394Q322 405 297 405Q267 405 256 395T245 368Q245 360 247 354T258 342T280 333T319 326Q392 316 440 303T516 271T555 226T566 163Q566 122 551 89T504 33T419 -2T291 -15Q230
-15 181 -6T98 25T46 82T26 167H244Q245 127 259 112Q273 97 299 97Q328 97 338 109T348 140Q348 151 341 161T311 177Q305 178 298 179T279 183T249 189T204 198Q158 207 126 219T73 248T43 289T33 349Q33 383 47 414T91 467T170 503T285 517Q343 517 391 509T475
482T529 429T551 347H345Z" />
<glyph unicode="t" glyph-name="t" horiz-adv-x="426" d="M70 354H5V502H70V583L312 667V502H421V354H312V200Q312 171 321 160T353 149Q366 149 380 149T412 155V7Q370 -2 329 -8T251 -15Q216 -15 183 -9T125 13T85 56T70 126V354Z" />
<glyph unicode="u" glyph-name="u" horiz-adv-x="648" d="M612 0H376L370 76H368Q337 22 295 4T210 -15Q172 -15 140 -5T85 26T49 83T36 168V502H278V191Q278 133 322 133Q342 133 356 146T370 189V502H612V0Z" />
<glyph unicode="v" glyph-name="v" horiz-adv-x="630" d="M0 502H250L314 188H316L380 502H630L480 0H150L0 502Z" />
<glyph unicode="w" glyph-name="w" horiz-adv-x="944" d="M0 502H232L272 176H274L334 502H602L658 176H660L712 502H944L820 0H524L464 320H462L402 0H106L0 502Z" />
<glyph unicode="x" glyph-name="x" horiz-adv-x="630" d="M314 150L255 0H-13L139 270L1 502H257L314 368L358 502H614L487 270L643 0H387L314 150Z" />
<glyph unicode="y" glyph-name="y" horiz-adv-x="630" d="M200 -15L-3 502H253L323 226H325L391 502H633L395 -192H133L200 -15Z" />
<glyph unicode="z" glyph-name="z" horiz-adv-x="536" d="M25 142L200 338H39V502H495V348L336 164H511V0H25V142Z" />
<glyph unicode="{" glyph-name="braceleft" horiz-adv-x="481" d="M429 558H394Q363 558 350 544T336 498V383Q336 356 324 339T295 312T258 297T224 290V288Q239 286 258 281T294 266T324 239T336 195V80Q336 48 349 34T394 20H429V-144H263Q230 -144 204 -133T160
-104T133 -64T124 -18V151Q124 170 116 181T94 198T64 205T30 207V371Q47 371 63 372T93 380T115 397T124 427V596Q124 619 133 641T160 682T204 711T263 722H429V558Z" />
<glyph unicode="|" glyph-name="bar" horiz-adv-x="222" d="M43 741H179V-19H43V741Z" />
<glyph unicode="}" glyph-name="braceright" horiz-adv-x="481" d="M52 20H87Q118 20 131 34T145 80V195Q145 222 157 239T186 266T223 281T257 288V290Q242 292 223 297T187 312T157 339T145 383V498Q145 530 132 544T87 558H52V722H218Q251 722 277 711T321
682T348 642T357 596V427Q357 408 365 397T387 380T417 373T451 371V207Q434 207 418 206T388 198T366 181T357 151V-18Q357 -41 348 -63T321 -104T277 -133T218 -144H52V20Z" />
<glyph unicode="~" glyph-name="asciitilde" horiz-adv-x="600" d="M69 267Q93 315 126 334T194 353Q221 353 250 342T308 318T362 294T407 283Q430 283 452 302T495 353L531 239Q502 193 471 173T406 153Q376 153 352 164T302 188T250 212T189 223Q140 223 105
153L69 267Z" />
</font>
</defs>
</svg>
