<?xml version="1.0" standalone="no"?> <!DOCTYPE svg PUBLIC "-//W3C//DTD SVG 1.0//EN" "http://www.w3.org/TR/2001/REC-SVG-20010904/DTD/svg10.dtd" > <svg xmlns="http://www.w3.org/2000/svg" width="100%" height="100%">
<defs >
<font id="universcom-57condensed" horiz-adv-x="400" ><font-face
    font-family="Univers Com"
    units-per-em="1000"
    panose-1="2 11 5 6 2 2 2 5 2 4"
    ascent="724"
    descent="-276"
    alphabetic="0" />
<missing-glyph horiz-adv-x="485" d="M210 111V174H263V111H210ZM211 222V238Q211 263 213 281T222 313T240 341T268 369Q298 398 306 415T314 449Q314 483 293 506T242 529Q213 529 192 509T165 439L117 447Q124 516 159 546T245 577Q297 577 330 544T363 453Q363
422 351 398T303 340Q286 325 277 315T264 294T258 273T257 244V222H211ZM438 47V632H47V47H438ZM485 680V0H0V680H485Z" />
<glyph unicode=" " glyph-name="space" horiz-adv-x="222" />
<glyph unicode="!" glyph-name="exclam" horiz-adv-x="333" d="M130 167L112 722H221L201 167H130ZM214 0H120V104H214V0Z" />
<glyph unicode="&quot;" glyph-name="quotedbl" horiz-adv-x="250" d="M35 722H95V515H35V722ZM155 722H215V515H155V722Z" />
<glyph unicode="#" glyph-name="numbersign" horiz-adv-x="444" d="M96 234H-3L14 290H113L148 404H47L64 460H164L237 694H288L215 460H297L368 694H420L348 460H450L433 404H331L296 290H399L382 234H279L207 0H156L228 234H148L74 0H23L96 234ZM245 290L280
404H199L165 290H245Z" />
<glyph unicode="$" glyph-name="dollar" horiz-adv-x="444" d="M243 -74H200V-15Q147 -15 112 0T54 40T22 92T7 145T3 188T5 211H99Q99 184 104 159T122 113T153 80T200 65V317Q168 333 136 350T79 391T38 444T22 517Q22 559 35 593T73 652T129 691T200 705V764H243V705Q343
705 391 652T439 501H338Q339 556 319 589T243 625V394Q277 378 312 361T375 319T422 261T440 177Q440 125 422 89T374 29T311 -4T243 -15V-74ZM243 65Q288 70 317 98T346 174Q346 196 338 213T316 245T283 271T243 295V65ZM200 625Q163 620 140 595T116 527Q116
485 140 460T200 416V625Z" />
<glyph unicode="%" glyph-name="percent" horiz-adv-x="778" d="M198 737Q243 737 269 720T307 676T323 614T326 544Q326 508 323 474T308 414T269 371T198 355Q153 355 127 371T89 413T73 474T70 544Q70 579 73 613T88 675T127 720T198 737ZM579 367Q624 367
650 350T688 306T704 244T707 174Q707 138 704 104T689 44T650 1T579 -15Q534 -15 508 1T470 43T454 104T451 174Q451 209 454 243T469 305T508 350T579 367ZM248 -36H185L526 758H591L248 -36ZM198 681Q176 681 165 673T148 648T141 606T140 546Q140 512 141 487T147
445T164 420T198 411Q220 411 231 419T248 444T255 486T256 546Q256 580 255 605T249 647T232 672T198 681ZM579 311Q557 311 546 303T529 278T522 236T521 176Q521 142 522 117T528 75T545 50T579 41Q601 41 612 49T629 74T636 116T637 176Q637 210 636 235T630
277T613 302T579 311Z" />
<glyph unicode="&amp;" glyph-name="ampersand" horiz-adv-x="667" d="M492 74Q451 24 403 5T291 -15Q242 -15 199 -3T124 36T73 100T54 192Q54 237 66 268T99 325T150 370T214 412Q198 430 182 451T151 496T128 544T119 594Q119 633 134 660T174 705T231 729T297
737Q331 737 362 729T416 702T452 657T466 591Q466 562 455 536T427 485T389 439T345 399L486 220Q491 238 494 257T498 300T500 354T500 425H582Q582 367 579 324T571 250T557 196T538 155L654 0H550L492 74ZM265 359Q241 343 220 327T183 292T158 249T148 194Q148
165 159 141T189 99T236 72T296 62Q345 62 380 78T443 134L265 359ZM292 456Q305 467 319 481T345 511T364 546T372 586Q372 624 351 645T293 667Q258 667 236 645T213 586Q213 567 221 550T242 517T268 485T292 456Z" />
<glyph unicode="&apos;" glyph-name="quotesingle" horiz-adv-x="250" d="M95 722H155V515H95V722Z" />
<glyph unicode="(" glyph-name="parenleft" horiz-adv-x="278" d="M149 -118Q132 -65 115 -12T83 95T60 203T50 314Q50 372 59 428T83 538T115 647T150 756H211Q183 646 164 535T144 310Q144 201 163 95T207 -118H149Z" />
<glyph unicode=")" glyph-name="parenright" horiz-adv-x="278" d="M71 -118Q96 -12 115 94T134 310Q134 424 115 535T67 756H128Q145 702 162 648T194 539T218 428T228 314Q228 258 219 204T195 95T163 -12T129 -118H71Z" />
<glyph unicode="*" glyph-name="asterisk" horiz-adv-x="444" d="M256 537L347 407L289 375L222 519L155 375L97 407L188 537L32 522V588L188 576L98 703L157 737L222 595L287 737L346 703L256 576L412 588V522L256 537Z" />
<glyph unicode="+" glyph-name="plus" horiz-adv-x="500" d="M219 505H281V284H457V222H281V0H219V222H43V284H219V505Z" />
<glyph unicode="," glyph-name="comma" horiz-adv-x="222" d="M86 104H189L98 -127H34L86 104Z" />
<glyph unicode="-" glyph-name="hyphen" horiz-adv-x="333" d="M56 311H276V234H56V311Z" />
<glyph unicode="." glyph-name="period" horiz-adv-x="222" d="M158 0H64V104H158V0Z" />
<glyph unicode="/" glyph-name="slash" horiz-adv-x="278" d="M43 -96H-24L211 722H278L43 -96Z" />
<glyph unicode="0" glyph-name="zero" horiz-adv-x="444" d="M222 705Q293 705 331 675T386 595T406 479T409 344Q409 276 406 212T386 97T331 16T222 -15Q175 -15 143 -1T90 38T58 97T42 170T36 254T35 344Q35 414 37 479T57 594T112 675T222 705ZM222 628Q187
628 168 607T139 547T129 452T127 326Q127 282 127 236T136 151T164 87T222 62Q260 62 279 87T307 150T316 235T317 326Q317 396 316 452T305 547T277 607T222 628Z" />
<glyph unicode="1" glyph-name="one" horiz-adv-x="444" d="M289 0H197V593L93 523V611Q102 615 117 625T149 647T183 672T210 694H289V0Z" />
<glyph unicode="2" glyph-name="two" horiz-adv-x="444" d="M43 0V80Q119 186 169 254T250 369T293 454T306 536Q306 578 286 603T220 628Q194 628 178 618T153 593T142 557T139 515H45Q39 602 81 653T213 705Q307 705 352 661T398 523Q398 484 392 453T372 392T337
332T288 266T223 184T141 80H416V0H43Z" />
<glyph unicode="3" glyph-name="three" horiz-adv-x="444" d="M169 404Q200 401 226 406T271 425T300 462T311 519Q311 567 289 597T215 628Q186 628 169 618T143 593T131 557T128 515H36Q31 604 74 654T215 705Q304 705 353 661T403 525Q403 476 387 446T350
399T305 375T266 364V362Q348 351 379 307T410 185Q410 83 357 34T204 -15Q156 -15 124 -3T71 29T42 73T29 120T25 162T25 191H117Q117 165 120 142T134 101T162 73T212 62Q242 62 262 71T295 96T313 136T318 187Q318 229 310 255T284 297T238 317T169 323V404Z"
/>
<glyph unicode="4" glyph-name="four" horiz-adv-x="444" d="M25 169V249L221 694H343V249H425V169H343V0H257V169H25ZM257 249V610H255L105 249H257Z" />
<glyph unicode="5" glyph-name="five" horiz-adv-x="444" d="M383 694V614H151V412L153 410Q164 433 196 447T263 462Q338 462 373 406T408 228Q408 186 403 143T379 65T323 8T220 -15Q166 -15 133 -1T81 36T56 91T49 157H141Q141 137 145 118T159 85T184 61T223
52Q256 52 274 66T302 103T313 152T316 205Q316 243 314 276T304 333T277 371T227 385Q189 385 169 362T142 304H59V694H383Z" />
<glyph unicode="6" glyph-name="six" horiz-adv-x="444" d="M223 -15Q176 -15 144 -1T91 38T59 97T43 170T37 254T36 344Q36 414 38 479T58 594T113 675T223 705Q262 705 294 694T349 660T384 607T395 536H303Q303 554 298 572T283 605T258 629T222 638Q194 638
176 625T147 582T132 504T128 387H130Q147 417 177 434T243 452Q276 452 306 441T358 404T394 332T408 219Q408 172 398 130T366 56T309 4T223 -15ZM130 225Q130 199 133 171T146 118T175 78T228 62Q256 62 273 76T300 114T313 169T316 235Q316 259 313 283T299
328T271 362T222 375Q192 375 174 361T146 324T133 275T130 225Z" />
<glyph unicode="7" glyph-name="seven" horiz-adv-x="444" d="M30 694H389V614L204 0H100L294 614H30V694Z" />
<glyph unicode="8" glyph-name="eight" horiz-adv-x="444" d="M279 367Q317 363 342 347T381 307T401 252T407 187Q407 93 360 39T222 -15Q131 -15 84 39T37 187Q37 221 42 252T62 307T102 347T165 367V368Q134 374 112 389T74 426T52 474T44 531Q44 613 92 659T222
705Q304 705 352 659T400 531Q400 501 393 475T370 426T333 389T279 368V367ZM222 62Q248 62 265 73T294 101T310 141T315 186Q315 209 313 234T301 280T273 314T222 328Q190 328 172 315T144 280T132 234T129 186Q129 163 134 141T150 102T178 73T222 62ZM222
408Q248 408 264 420T291 452T304 493T308 534Q308 553 303 572T288 605T261 629T222 638Q200 638 184 629T157 606T141 572T136 534Q136 515 139 493T153 452T179 421T222 408Z" />
<glyph unicode="9" glyph-name="nine" horiz-adv-x="444" d="M221 705Q292 705 330 675T385 595T405 479T408 344Q408 276 405 212T385 97T330 16T221 -15Q182 -15 150 -2T96 34T61 91T50 166H142Q142 147 146 129T159 95T184 71T221 62Q254 62 273 80T301 133T313
219T316 338H314Q297 302 266 288T195 273Q174 273 147 280T95 311T53 377T36 492Q36 550 52 591T94 657T153 693T221 705ZM221 638Q191 638 173 625T145 590T132 544T128 494Q128 468 131 443T144 397T172 363T221 350Q251 350 269 363T297 396T310 442T314 494Q314
518 311 543T297 590T269 624T221 638Z" />
<glyph unicode=":" glyph-name="colon" horiz-adv-x="222" d="M158 401H64V505H158V401ZM158 0H64V104H158V0Z" />
<glyph unicode=";" glyph-name="semicolon" horiz-adv-x="222" d="M86 104H189L98 -127H34L86 104ZM158 401H64V505H158V401Z" />
<glyph unicode="&lt;" glyph-name="less" horiz-adv-x="500" d="M458 60V-13L41 221V285L458 515V442L119 253L458 60Z" />
<glyph unicode="=" glyph-name="equal" horiz-adv-x="500" d="M457 322H43V384H457V322ZM457 125H43V187H457V125Z" />
<glyph unicode="&gt;" glyph-name="greater" horiz-adv-x="500" d="M380 253L41 442V515L458 285V221L41 -13V60L380 253Z" />
<glyph unicode="?" glyph-name="question" horiz-adv-x="444" d="M178 183V297Q178 330 197 358T238 418T280 486T299 572Q299 588 295 605T281 637T258 661T224 670Q197 670 182 656T160 620T151 575T150 531H56Q54 577 62 615T91 680T146 722T230 737Q308 737
350 692T393 570Q393 529 383 496T359 437T327 390T295 349T270 313T260 276V183H178ZM266 0H172V104H266V0Z" />
<glyph unicode="@" glyph-name="at" horiz-adv-x="788" d="M558 576H627L524 271Q520 260 516 245T511 219Q511 206 519 200T541 193Q564 193 593 208T647 252T690 326T708 430Q708 445 705 469T690 522T659 578T604 629T520 666T401 681Q334 681 276 656T174
588T105 486T80 361Q80 294 105 236T173 135T275 66T401 41Q492 41 566 74T685 174H745Q721 130 685 95T605 36T509 -2T401 -15Q323 -15 255 14T135 95T54 214T24 362Q24 440 53 508T134 627T254 707T401 737Q486 737 545 717T645 667T709 599T745 527T760 467T764
430Q764 345 738 289T674 199T596 151T527 137Q501 137 475 149T440 190Q417 166 385 153T320 139Q288 139 262 151T218 183T190 231T180 290Q180 341 198 395T249 493T328 567T430 596Q465 596 496 579T544 529L558 576ZM431 536Q391 536 359 512T305 450T270
371T257 295Q257 277 262 260T277 229T301 207T335 199Q364 199 388 215T430 258T462 315T485 375T498 428T502 463Q502 492 483 514T431 536Z" />
<glyph unicode="A" glyph-name="A" horiz-adv-x="611" d="M244 722H361L596 0H493L441 172H162L108 0H15L244 722ZM300 637H298L185 252H416L300 637Z" />
<glyph unicode="B" glyph-name="B" horiz-adv-x="611" d="M90 0V722H325Q362 722 388 716T433 700T463 677T486 648Q495 633 501 619T510 591T514 568T515 552Q515 484 488 441T391 381V376Q469 367 504 323T539 203Q539 134 517 94T461 32T391 6T322 0H90ZM182
80H312Q349 80 374 92T415 122T438 161T445 203Q445 246 433 272T398 313T346 333T280 338H182V80ZM182 418H316Q370 419 396 449T423 533Q423 578 397 610T312 642H182V418Z" />
<glyph unicode="C" glyph-name="C" horiz-adv-x="556" d="M399 523Q400 554 396 582T378 628Q371 637 360 642T338 652T315 657T297 659Q268 659 248 652T215 635T196 616T188 603Q187 600 184 594T177 572T170 528T167 453V260Q167 194 177 155T204 95T245 68T296
62Q306 62 325 66T363 85T396 130T410 213H505Q506 156 495 117T465 53T423 14T376 -6T333 -14T301 -15Q267 -15 228 -10T154 23T96 108T73 271V475Q73 551 89 601T136 682T209 724T305 737Q412 737 456 683T494 523H399Z" />
<glyph unicode="D" glyph-name="D" horiz-adv-x="611" d="M83 722H305Q374 722 423 696T499 612Q510 589 516 554T526 484T530 421T531 384Q531 268 521 199T487 93Q458 46 401 23T249 0H83V722ZM175 80H262Q310 80 343 90T397 125T427 191T437 296V442Q437 551
403 596T296 642H175V80Z" />
<glyph unicode="E" glyph-name="E" horiz-adv-x="500" d="M81 0V722H453V642H173V410H433V330H173V80H459V0H81Z" />
<glyph unicode="F" glyph-name="F" horiz-adv-x="444" d="M74 0V722H432V642H166V410H418V330H166V0H74Z" />
<glyph unicode="G" glyph-name="G" horiz-adv-x="611" d="M427 529Q427 593 398 626T299 660Q288 660 266 657T222 639T183 593T166 504V260Q166 201 174 163T200 102T241 71T299 62Q349 62 381 72T428 94V310H295V390H520V39Q475 15 422 0T299 -15Q184 -15 128
49T72 264V501Q72 609 128 673T299 737Q416 737 471 690T523 529H427Z" />
<glyph unicode="H" glyph-name="H" horiz-adv-x="611" d="M87 0V722H179V410H432V722H524V0H432V330H179V0H87Z" />
<glyph unicode="I" glyph-name="I" horiz-adv-x="278" d="M185 0H93V722H185V0Z" />
<glyph unicode="J" glyph-name="J" horiz-adv-x="500" d="M126 224Q127 200 127 172T135 119T161 78T214 62Q251 62 271 76T302 115T315 170T318 234V722H410V179Q410 169 409 151T403 112T385 68T351 27T294 -3T211 -15Q196 -15 176 -12T134 -1T92 21T59 56Q37
92 34 136T30 224H126Z" />
<glyph unicode="K" glyph-name="K" horiz-adv-x="556" d="M81 0V722H173V405H176L428 722H532L270 396L547 0H429L176 377H173V0H81Z" />
<glyph unicode="L" glyph-name="L" horiz-adv-x="444" d="M81 0V722H173V80H438V0H81Z" />
<glyph unicode="M" glyph-name="M" horiz-adv-x="833" d="M168 0H82V722H231L413 116H415L599 722H751V0H659V642H657L455 0H368L170 642H168V0Z" />
<glyph unicode="N" glyph-name="N" horiz-adv-x="667" d="M581 722V0H455L170 626H168V0H86V722H216L497 104H499V722H581Z" />
<glyph unicode="O" glyph-name="O" horiz-adv-x="611" d="M305 -15Q190 -15 134 49T78 264V501Q78 609 134 673T305 737Q420 737 476 673T532 501V264Q532 114 476 50T305 -15ZM305 62Q338 62 362 70T404 101T429 162T438 260V504Q438 561 422 592T383 639T338
657T305 660Q294 660 272 657T228 639T189 593T172 504V260Q172 201 180 163T206 102T247 71T305 62Z" />
<glyph unicode="P" glyph-name="P" horiz-adv-x="556" d="M93 0V722H307Q343 722 379 714T443 683T490 620T508 516Q508 454 487 416T435 356T369 326T306 318H185V0H93ZM185 398H286Q300 398 322 401T364 417T399 454T414 521Q414 562 401 586T371 622T336 638T312
642H185V398Z" />
<glyph unicode="Q" glyph-name="Q" horiz-adv-x="611" d="M72 501Q72 609 128 673T299 737Q414 737 470 673T526 501V264Q526 244 522 214T510 153T490 98T463 66L465 64Q470 65 478 68T496 73T513 78T528 80H600V0H300Q276 0 250 1T198 11T149 35T109 81T82 154T72
264V501ZM300 74Q340 74 366 86T406 122T426 180T432 260V504Q432 561 416 592T377 639T332 657T299 660Q288 660 266 657T222 639T183 593T166 504V260Q166 215 171 181T192 122T233 86T300 74Z" />
<glyph unicode="R" glyph-name="R" horiz-adv-x="556" d="M171 332V0H79V722H328Q376 722 409 707T462 666T492 608T501 542Q501 478 467 433T369 377V375Q400 370 421 361T457 332T478 277T487 189Q487 177 489 153T494 100T502 44T512 0H416Q406 19 402 45T395
102T392 169T388 240Q385 273 372 291T343 319T309 330T279 332H171ZM171 412H309Q334 412 352 422T383 448T401 486T407 532Q407 551 402 571T386 606T356 632T310 642H171V412Z" />
<glyph unicode="S" glyph-name="S" horiz-adv-x="556" d="M152 215V194Q152 157 162 133T190 93T229 72T273 65Q300 65 324 71T365 91T392 127T402 182Q402 222 378 249T318 298T240 340T162 387T102 450T78 541Q78 589 94 625T138 687T206 724T290 737Q389 737
441 687T490 526H394Q395 585 372 621T283 657Q262 657 243 652T207 634T182 601T172 551Q172 511 196 485T256 437T334 395T412 347T472 282T496 186Q496 129 478 91T429 29T358 -5T272 -15Q219 -16 183 -4T123 28T86 73T68 124T61 174T61 215H152Z" />
<glyph unicode="T" glyph-name="T" horiz-adv-x="500" d="M486 722V642H296V0H204V642H14V722H486Z" />
<glyph unicode="U" glyph-name="U" horiz-adv-x="611" d="M78 722H170V260Q170 201 179 163T205 102T247 71T305 62Q338 62 363 70T405 101T431 162T440 260V722H532V264Q532 114 476 50T305 -15Q190 -15 134 49T78 264V722Z" />
<glyph unicode="V" glyph-name="V" horiz-adv-x="556" d="M332 0H222L13 722H113L278 87H280L449 722H543L332 0Z" />
<glyph unicode="W" glyph-name="W" horiz-adv-x="889" d="M6 722H104L240 96H242L387 722H506L637 96H639L786 722H882L691 0H579L442 626H440L294 0H182L6 722Z" />
<glyph unicode="X" glyph-name="X" horiz-adv-x="556" d="M544 0H433L265 309L106 0H6L214 374L17 722H123L271 442L421 722H522L328 374L544 0Z" />
<glyph unicode="Y" glyph-name="Y" horiz-adv-x="500" d="M398 722H491L294 275V0H202V275L8 722H111L252 373L398 722Z" />
<glyph unicode="Z" glyph-name="Z" horiz-adv-x="500" d="M467 630L109 80H475V0H24V104L374 640V642H36V722H467V630Z" />
<glyph unicode="[" glyph-name="bracketleft" horiz-adv-x="278" d="M70 -118V756H236V700H152V-62H239V-118H70Z" />
<glyph unicode="\" glyph-name="backslash" horiz-adv-x="278" d="M-1 722H66L278 -15H211L-1 722Z" />
<glyph unicode="]" glyph-name="bracketright" horiz-adv-x="278" d="M39 -118V-62H126V700H42V756H208V-118H39Z" />
<glyph unicode="^" glyph-name="asciicircum" horiz-adv-x="500" d="M277 694L433 277H358L246 595H244L134 277H66L217 694H277Z" />
<glyph unicode="_" glyph-name="underscore" horiz-adv-x="500" d="M0 -125V-75H500V-125H0Z" />
<glyph unicode="`" glyph-name="grave" horiz-adv-x="278" d="M129 722L218 581H151L20 722H129Z" />
<glyph unicode="a" glyph-name="a" horiz-adv-x="500" d="M332 73H330Q311 29 281 10T203 -10Q163 -10 137 2T94 37T72 89T65 156Q65 213 90 245T154 293T240 311T330 313Q331 338 330 363T321 408T296 440T245 453Q203 453 183 428T166 363H77Q80 448 123 481T248
515Q297 515 328 503T378 471T404 423T412 363V120Q412 90 414 60T422 0H332V73ZM330 251Q301 251 269 250T209 240T165 211T147 150Q147 113 166 85T226 57Q245 57 264 64T299 93T324 152T330 251Z" />
<glyph unicode="b" glyph-name="b" horiz-adv-x="500" d="M161 0H79V722H161V454H164Q185 484 212 499T275 515Q336 515 370 491T420 427T439 340T442 244Q442 161 428 111T391 34T339 -1T279 -10Q239 -10 212 7T163 60H161V0ZM161 273Q161 244 161 207T169 136T196
80T253 57Q292 57 312 75T343 121T354 181T356 243Q356 294 353 332T339 396T309 435T256 448Q222 448 203 430T175 386T163 329T161 273Z" />
<glyph unicode="c" glyph-name="c" horiz-adv-x="500" d="M336 343Q337 374 331 394T314 427T291 443T266 448Q242 448 223 441T189 416T168 365T160 280Q160 218 164 176T181 107T213 69T266 57Q273 57 286 61T311 78T331 112T339 168H425Q426 115 409 81T368
26T315 -2T266 -10Q226 -10 191 -2T130 34T89 111T74 245Q74 300 79 349T104 435T162 493T266 515Q342 515 383 472T421 343H336Z" />
<glyph unicode="d" glyph-name="d" horiz-adv-x="500" d="M339 722H421V0H339V60H337Q316 25 289 8T221 -10Q191 -10 162 -2T109 34T72 111T58 244Q58 291 61 339T80 427T130 490T225 515Q261 515 288 500T336 454H339V722ZM339 273Q339 298 337 328T326 385T297
430T244 448Q211 448 191 435T161 396T147 332T144 243Q144 214 145 182T157 122T187 76T247 57Q281 57 300 76T327 127T337 196T339 273Z" />
<glyph unicode="e" glyph-name="e" horiz-adv-x="500" d="M152 226Q152 173 159 140T179 89T211 64T254 57Q275 57 291 65T318 86T335 116T342 153H432Q431 68 384 29T256 -10Q216 -10 181 -2T120 34T79 111T64 245Q64 300 69 349T94 435T152 493T256 515Q310
515 345 500T400 455T428 378T436 269V226H152ZM349 288Q349 343 342 375T321 425T289 448T248 453Q228 453 211 447T181 423T160 373T152 288H349Z" />
<glyph unicode="f" glyph-name="f" horiz-adv-x="278" d="M87 505V603Q87 641 99 665T132 702T178 720T232 725Q245 725 253 725T271 722V663Q238 665 218 660T187 645T173 620T169 591V505H271V443H169V0H87V443H9V505H87Z" />
<glyph unicode="g" glyph-name="g" horiz-adv-x="500" d="M339 505H421V-51Q421 -93 408 -120T370 -163T311 -185T235 -191Q203 -191 175 -183T125 -159T91 -117T82 -56H174Q175 -91 196 -110T251 -129Q294 -129 316 -105T339 -42V63H336Q320 33 289 17T225 0Q174
0 142 21T92 78T68 163T61 268Q61 355 80 404T124 478T177 509T219 515Q259 515 289 498T337 443H339V505ZM341 255Q341 283 340 316T331 379T302 427T243 447Q208 447 189 429T160 383T149 324T147 268Q147 207 153 169T173 108T204 77T245 68Q282 68 301 87T330
135T340 196T341 255Z" />
<glyph unicode="h" glyph-name="h" horiz-adv-x="500" d="M346 0V342Q346 365 342 384T328 418T300 440T256 448Q225 448 205 437T174 405T158 357T153 297V0H71V722H153V440H157Q182 484 213 499T294 515Q359 515 393 480T428 358V0H346Z" />
<glyph unicode="i" glyph-name="i" horiz-adv-x="222" d="M152 0H70V505H152V0ZM65 722H157V634H65V722Z" />
<glyph unicode="j" glyph-name="j" horiz-adv-x="222" d="M70 505H152V-70Q152 -100 147 -122T126 -160T82 -183T9 -191V-121Q22 -121 33 -120T52 -113T65 -99T70 -74V505ZM65 722H157V634H65V722Z" />
<glyph unicode="k" glyph-name="k" horiz-adv-x="444" d="M154 0H72V722H154V287H156L310 505H410L242 288L440 0H336L156 283H154V0Z" />
<glyph unicode="l" glyph-name="l" horiz-adv-x="222" d="M152 0H70V722H152V0Z" />
<glyph unicode="m" glyph-name="m" horiz-adv-x="722" d="M320 0V350Q320 369 317 387T305 418T281 440T240 448Q221 448 200 438T169 414Q158 395 154 375T150 340V0H68V400Q68 426 67 452T63 505H150V442H152Q170 483 201 499T278 515Q295 515 313 512T347 500T376
480T396 450Q417 490 449 502T516 515Q536 515 560 512T605 495T640 455T654 384V0H572V350Q572 369 569 387T557 418T533 440T492 448Q469 448 458 445T430 429Q421 421 416 409T407 384T403 359T402 340V0H320Z" />
<glyph unicode="n" glyph-name="n" horiz-adv-x="500" d="M346 0V350Q346 370 342 388T328 419T301 440T257 448Q223 448 203 435T172 400T158 352T154 299V0H72V400Q72 426 71 452T67 505H154V440H158Q182 483 213 499T293 515Q333 515 359 504T401 470T422 418T428
350V0H346Z" />
<glyph unicode="o" glyph-name="o" horiz-adv-x="500" d="M250 -10Q210 -10 175 -2T114 34T73 111T58 245Q58 300 63 349T88 435T146 493T250 515Q316 515 354 494T411 436T436 350T442 245Q442 161 427 111T386 34T325 -1T250 -10ZM250 57Q282 57 302 69T335
107T351 175T356 280Q356 332 349 364T327 415T294 441T250 448Q226 448 207 441T173 416T152 365T144 280Q144 218 148 176T165 107T197 69T250 57Z" />
<glyph unicode="p" glyph-name="p" horiz-adv-x="500" d="M161 445H163Q184 480 211 497T279 515Q309 515 338 507T391 471T428 394T442 261Q442 214 439 166T420 78T370 15T275 -10Q239 -10 212 5T164 51H161V-191H79V505H161V445ZM256 57Q289 57 308 70T338
108T352 172T356 261Q356 289 355 322T343 383T313 429T253 448Q215 448 196 425T169 369T161 298T161 231Q161 206 163 176T174 119T203 75T256 57Z" />
<glyph unicode="q" glyph-name="q" horiz-adv-x="500" d="M339 505H421V-191H339V51H336Q315 21 288 6T225 -10Q164 -10 130 14T80 78T61 165T58 261Q58 344 72 394T109 471T161 506T221 515Q261 515 288 498T337 445H339V505ZM244 57Q278 57 297 75T325 119T337
175T339 231Q339 260 339 297T331 367T304 423T247 446Q208 446 188 428T157 382T146 322T144 261Q144 210 147 172T160 109T191 70T244 57Z" />
<glyph unicode="r" glyph-name="r" horiz-adv-x="333" d="M157 429H159Q172 458 186 475T219 501T261 512T315 515V430Q310 431 304 431T293 433Q288 434 283 434T271 435Q237 435 215 423T180 392T162 348T157 298V0H75V505H157V429Z" />
<glyph unicode="s" glyph-name="s" horiz-adv-x="444" d="M397 144Q397 102 384 73T347 26T291 -1T221 -10Q139 -10 92 28T47 154H140Q140 143 141 127T151 95T176 68T224 57Q261 57 286 76T311 134Q311 156 293 172T246 203T185 232T124 266T78 312T59 377Q59
397 66 421T92 466T146 501T233 515Q267 515 297 507T349 481T384 437T393 372H302Q303 412 283 432T223 453Q190 453 168 436T145 385Q145 363 163 347T210 317T271 289T332 256T378 209T397 144Z" />
<glyph unicode="t" glyph-name="t" horiz-adv-x="278" d="M81 505V602L163 639V505H273V443H163V134Q163 122 164 109T172 86T194 68T238 61Q243 61 252 62T275 65V2Q255 0 235 -3T194 -6Q135 -6 108 17T81 84V443H-2V505H81Z" />
<glyph unicode="u" glyph-name="u" horiz-adv-x="500" d="M342 505H424V105Q424 79 425 53T429 0H342V61H339Q319 26 285 8T211 -10Q145 -10 110 22T75 120V505H157V155Q157 109 178 81T243 53Q259 53 277 59T309 80T332 116T342 170V505Z" />
<glyph unicode="v" glyph-name="v" horiz-adv-x="444" d="M14 505H106L219 77H221L343 505H429L271 0H164L14 505Z" />
<glyph unicode="w" glyph-name="w" horiz-adv-x="722" d="M9 505H100L191 70H193L305 505H421L524 70H526L626 505H713L578 0H468L360 430H358L245 0H135L9 505Z" />
<glyph unicode="x" glyph-name="x" horiz-adv-x="444" d="M437 0H329L212 207L103 0H6L163 264L19 505H124L220 324L322 505H421L270 264L437 0Z" />
<glyph unicode="y" glyph-name="y" horiz-adv-x="444" d="M224 94H226L347 505H436L207 -191H122L179 0L8 505H103L224 94Z" />
<glyph unicode="z" glyph-name="z" horiz-adv-x="389" d="M347 430L124 67H354V0H35V77L255 436V438H46V505H347V430Z" />
<glyph unicode="{" glyph-name="braceleft" horiz-adv-x="274" d="M179 24Q179 3 182 -13T196 -41T223 -59T266 -65V-121Q216 -123 183 -116T131 -90T105 -44T97 26V223Q97 248 91 261T72 282T44 294T7 307V363Q49 372 73 387T97 440V626Q97 679 116 706T163 744T219
755T266 756V700Q212 700 196 677T179 610V457Q179 433 175 414T160 379T128 353T77 336V334Q110 327 130 315T161 285T175 245T179 196V24Z" />
<glyph unicode="|" glyph-name="bar" horiz-adv-x="250" d="M94 750H156V-250H94V750Z" />
<glyph unicode="}" glyph-name="braceright" horiz-adv-x="274" d="M94 196Q94 223 97 245T112 284T143 314T196 334V336Q164 342 145 352T114 378T98 413T94 457V610Q94 653 78 676T7 700V756Q25 756 54 756T110 744T156 706T176 626V440Q176 402 200 387T266
363V307Q246 299 230 295T201 283T183 262T176 223V26Q176 -15 169 -43T142 -90T90 -115T7 -121V-65Q59 -65 76 -41T94 24V196Z" />
<glyph unicode="~" glyph-name="asciitilde" horiz-adv-x="500" d="M160 332Q182 332 207 322T256 297Q281 284 303 273T341 262Q355 262 367 270T389 290T408 316T422 345L456 298Q447 278 436 258T410 222T378 197T340 187Q329 187 314 192T284 204T254 218T229
231Q213 239 196 247T160 256Q144 256 132 248T109 226T92 197T77 166L43 214Q52 235 63 256T89 294T120 321T160 332Z" />
</font>
</defs>
</svg>
